<?xml version="1.0" encoding="UTF-8"?>
<svg width="576px" height="111px" viewBox="0 0 576 111" version="1.1" xmlns="http://www.w3.org/2000/svg"
    xmlns:xlink="http://www.w3.org/1999/xlink">
    <title>SVGSprite</title>
    <g id="页面-1" stroke="none" stroke-width="1" fill="none" fill-rule="evenodd">
        <path
            d="M27.6,82.8 C30.96,82.8 34.56,82.68 38.4,82.2 C42,81.72 45.48,80.88 48.6,79.56 C51.72,78.36 54.24,76.68 56.28,74.28 C58.2,71.88 59.28,68.76 59.28,64.92 C59.28,62.04 58.32,59.4 56.52,57.24 C54.6,55.2 52.2,53.28 49.32,51.36 C46.2,49.56 42.96,47.76 39.48,46.08 C35.88,44.4 32.52,42.6 29.28,40.68 C27.36,39.48 25.44,38.28 23.76,36.84 C22.08,35.52 20.52,33.96 19.32,32.28 C18,30.6 17.04,28.8 16.32,26.76 C15.48,24.84 15.12,22.56 15.12,20.04 C15.12,18.6 15.36,17.16 15.96,15.72 C16.44,14.28 17.4,12.84 18.72,11.64 C19.92,10.44 21.6,9.48 23.64,8.76 C25.56,8.04 27.96,7.56 30.84,7.56 C32.04,7.56 33.24,7.68 34.56,7.8 C35.88,8.04 37.2,8.52 38.64,9 C39.84,9.48 41.04,10.2 42.24,10.92 C43.32,11.88 44.28,12.84 45,14.04 C45.48,15 45.96,16.08 46.44,17.16 C46.68,17.64 46.8,18.12 47.04,18.6 C47.16,19.08 47.4,19.56 47.64,20.04 C48,21 48.6,21.72 49.32,22.2 C50.04,22.68 51.12,22.92 52.8,22.92 C54,22.92 54.96,22.44 55.92,21.48 C56.88,20.52 57.36,19.32 57.36,18.12 C57.36,16.68 56.76,15 55.8,13.32 C54.72,11.76 53.52,10.2 52.08,8.76 C50.52,7.32 48.96,6.12 47.28,4.92 C45.48,3.84 43.92,3 42.6,2.4 C41.04,1.8 39.24,1.32 37.2,0.84 C35.16,0.6 33.36,0.36 31.68,0.36 C27.72,0.36 24,0.84 20.64,1.56 C17.28,2.4 14.28,3.72 11.88,5.4 C9.36,7.2 7.44,9.48 6,12.12 C4.56,15 3.96,18.24 3.96,22.08 C3.96,25.08 4.44,27.72 5.64,30.12 C6.72,32.64 8.16,34.92 10.08,36.84 C12,38.88 14.16,40.68 16.68,42.36 C19.08,44.04 21.72,45.72 24.48,47.16 C27.36,48.84 30.36,50.28 33.36,51.72 C36.24,53.16 38.76,54.6 41.16,56.04 C43.44,57.48 45.36,59.04 47.04,60.72 C48.48,62.4 49.32,64.32 49.32,66.36 C49.32,68.04 48.48,69.48 46.8,70.68 C45.12,71.88 43.2,72.72 41.04,73.44 C38.76,74.16 36.48,74.76 34.08,75 C31.68,75.36 29.76,75.48 28.32,75.48 C25.8,75.48 23.52,75.24 21.6,74.52 C19.56,74.04 18,73.32 17.04,72.6 C16.56,72.24 15.84,71.64 15.12,70.92 C14.16,70.2 13.32,69.36 12.6,68.4 C11.64,67.56 10.92,66.72 10.32,65.88 L8.76,63.84 C8.04,63.36 7.44,62.88 6.96,62.4 C6.24,62.04 5.64,61.8 4.92,61.8 C3.48,61.8 2.4,62.28 1.44,63 C0.48,63.96 0,64.92 0,66 C0,67.8 0.72,69.72 2.16,71.64 C3.6,73.56 5.64,75.36 8.16,77.04 C10.68,78.72 13.68,80.16 17.04,81.24 C20.28,82.32 23.76,82.8 27.6,82.8 Z M99.84,83.88 C100.68,83.88 101.52,83.76 102.48,83.4 C103.44,83.16 104.16,82.68 104.76,81.96 C106.2,80.28 107.76,77.76 109.44,74.52 C111.12,71.4 112.68,67.92 114.24,64.32 C115.68,60.72 117,57.24 118.2,53.76 C119.4,50.4 120.36,47.52 121.08,45.12 C122.64,39.84 124.08,34.92 125.28,30.12 L129,15.6 C129.12,15 129.48,14.04 129.96,12.6 L131.04,9.48 C131.64,8.04 132,6.72 132,5.52 C132,4.32 131.28,3.36 129.84,2.52 C128.4,1.68 127.08,1.2 125.88,1.2 C125.16,1.2 124.56,1.32 123.84,1.32 C123.12,1.44 122.52,1.68 121.92,2.04 C120.96,2.64 120.36,3.24 120.12,3.72 C119.88,4.32 119.76,5.16 119.76,6.24 C119.76,7.92 119.64,9.48 119.52,10.92 C119.28,12.6 118.92,14.28 118.56,16.2 C117.6,20.64 116.4,25.56 114.96,31.08 C113.52,36.6 112.08,42 110.4,47.28 C108.72,52.68 106.92,57.72 105.12,62.28 C103.2,66.96 101.4,70.68 99.6,73.44 C98.4,72.12 97.44,70.44 96.48,68.52 C95.52,66.6 94.8,64.56 94.08,62.28 C93.24,60 92.52,57.6 91.92,55.08 C91.2,52.68 90.6,50.4 90.12,48 C88.68,42.84 87.48,37.56 86.4,32.28 L83.52,18 C83.28,17.04 83.16,16.08 82.92,15 C82.68,14.04 82.44,12.96 82.32,11.88 L81.6,9 C81.36,8.04 81.12,7.2 80.76,6.24 C79.8,4.32 78.12,3.24 75.72,3.24 C75,3.24 74.28,3.36 73.56,3.48 C72.72,3.72 72,4.08 71.28,4.44 C70.56,4.92 70.08,5.4 69.6,5.88 C69.12,6.36 68.88,6.96 68.88,7.44 C68.88,7.92 68.88,8.28 69.12,8.76 L69.96,10.44 C70.2,11.16 70.56,11.76 70.8,12.36 C71.04,13.08 71.4,13.8 71.64,14.4 C73.08,19.44 74.4,24.72 75.6,30.12 C76.8,35.64 78,40.92 79.44,46.2 C80.04,48.72 80.88,51.6 81.84,54.96 C82.8,58.32 84,61.8 85.2,65.16 C86.4,68.52 87.84,71.76 89.4,74.76 C90.84,77.88 92.52,80.28 94.32,81.96 C94.92,82.68 95.76,83.16 96.84,83.4 C97.8,83.76 98.88,83.88 99.84,83.88 Z M198.36,85.92 C199.68,85.92 200.76,85.56 201.72,84.84 C202.56,84 203.04,83.04 203.04,81.6 C203.04,81.36 202.92,81 202.92,80.52 L202.56,79.08 L202.08,77.4 C201.96,76.92 201.84,76.44 201.72,75.96 C201.24,74.04 200.88,71.88 200.64,69.72 C200.4,67.56 200.4,65.52 200.4,63.36 C200.4,62.04 200.4,60.72 200.64,59.28 L201.36,53.16 L201.36,51 C201.36,50.76 201.48,50.28 201.84,49.56 L202.8,48.24 C203.04,47.76 203.4,47.28 203.64,46.8 C203.88,46.32 204,45.84 204,45.36 C204,44.88 203.64,44.16 203.04,43.44 C202.44,42.72 201.72,42.12 200.88,41.4 C200.04,40.8 199.2,40.2 198.24,39.72 C197.28,39.36 196.56,39.12 195.84,39.12 C195.12,39.36 194.28,39.6 193.32,39.84 C192.24,40.2 191.4,40.44 190.8,40.56 C189.84,40.8 188.64,41.16 187.2,41.52 C185.76,42 184.2,42.36 182.64,42.6 C180.96,43.08 179.4,43.32 177.96,43.56 C176.4,43.92 175.08,44.04 174.12,44.04 L170.04,44.04 C169.68,44.04 169.32,44.28 168.84,44.52 C168.36,44.76 167.88,45.12 167.4,45.48 C166.92,45.96 166.44,46.32 166.2,46.68 C165.84,47.16 165.72,47.64 165.72,47.88 C165.72,49.56 166.32,50.76 167.64,51.6 C168.84,52.56 170.4,52.92 172.2,52.92 C172.68,52.92 173.28,52.92 174,52.8 C174.48,52.8 175.08,52.68 175.8,52.44 C177.24,52.2 178.8,51.84 180.48,51.36 C181.68,51.12 182.88,50.88 184.08,50.52 C185.16,50.28 186.24,50.04 187.32,49.68 C187.56,49.92 188.04,50.04 188.64,50.28 C189.12,50.52 189.36,50.88 189.6,51.12 C189.6,51.96 189.24,53.04 188.76,54.24 C188.52,54.96 188.16,55.44 187.92,55.92 C187.68,56.4 187.44,56.88 187.32,57.24 C186.36,59.16 185.28,61.2 183.84,63.24 C182.4,65.28 180.72,67.08 178.92,68.76 C177,70.44 175.08,71.88 172.92,72.84 C170.76,74.04 168.48,74.52 166.2,74.52 C161.16,74.52 157.44,72.96 155.04,69.6 C152.52,66.36 151.32,61.8 151.32,55.8 C151.32,49.8 151.8,44.16 152.76,38.76 C153.72,33.48 155.4,28.08 157.8,22.56 C158.4,21.12 159.36,19.56 160.56,17.88 C161.64,16.2 162.96,14.52 164.52,13.08 C165.96,11.64 167.64,10.44 169.56,9.48 C171.36,8.52 173.28,7.92 175.32,7.92 C178.2,7.92 180.48,8.64 182.16,9.84 C183.72,11.16 185.04,12.36 186.24,13.56 L188.04,15.72 C188.52,16.56 189.24,17.28 189.96,17.88 C190.92,19.08 192.24,19.68 193.92,19.68 C195.12,19.68 196.32,19.32 197.28,18.48 C198.12,17.76 198.6,16.68 198.6,15.36 C198.6,14.88 198.48,14.52 198.24,14.04 C198,13.56 197.88,13.2 197.64,12.72 C195.24,8.88 192,5.76 187.92,3.48 C183.72,1.32 179.4,0.12 174.84,0.12 C171.12,0.12 167.76,1.08 164.64,2.76 C161.52,4.68 158.76,7.08 156.24,9.96 C153.6,12.84 151.44,16.2 149.52,19.8 C147.48,23.64 145.8,27.48 144.48,31.32 C143.04,35.16 142.08,39 141.36,42.6 C140.64,46.44 140.4,49.68 140.4,52.44 C140.4,56.76 140.64,60.96 141.36,64.92 C142.08,68.88 143.64,72.36 146.16,75.24 C148.08,77.64 150.84,79.56 154.2,81 C157.56,82.44 161.64,83.16 166.44,83.16 C168.84,83.16 171.36,82.68 174,81.48 C176.52,80.52 178.92,78.96 181.32,77.04 C183.6,75.12 185.76,72.96 187.8,70.32 C189.72,67.8 191.4,65.04 192.84,62.04 C192.6,63.72 192.48,65.52 192.48,67.56 C192.24,69.72 192.24,71.76 192.24,73.56 C192.24,76.08 192.36,78.12 192.84,79.68 C193.2,81.36 193.68,82.56 194.4,83.4 C194.88,84.36 195.6,84.96 196.32,85.32 C197.04,85.68 197.64,85.92 198.36,85.92 Z M283.56,82.8 C286.92,82.8 290.52,82.68 294.36,82.2 C297.96,81.72 301.44,80.88 304.56,79.56 C307.68,78.36 310.2,76.68 312.24,74.28 C314.16,71.88 315.24,68.76 315.24,64.92 C315.24,62.04 314.28,59.4 312.48,57.24 C310.56,55.2 308.16,53.28 305.28,51.36 C302.16,49.56 298.92,47.76 295.44,46.08 C291.84,44.4 288.48,42.6 285.24,40.68 C283.32,39.48 281.4,38.28 279.72,36.84 C278.04,35.52 276.48,33.96 275.28,32.28 C273.96,30.6 273,28.8 272.28,26.76 C271.44,24.84 271.08,22.56 271.08,20.04 C271.08,18.6 271.32,17.16 271.92,15.72 C272.4,14.28 273.36,12.84 274.68,11.64 C275.88,10.44 277.56,9.48 279.6,8.76 C281.52,8.04 283.92,7.56 286.8,7.56 C288,7.56 289.2,7.68 290.52,7.8 C291.84,8.04 293.16,8.52 294.6,9 C295.8,9.48 297,10.2 298.2,10.92 C299.28,11.88 300.24,12.84 300.96,14.04 C301.44,15 301.92,16.08 302.4,17.16 C302.64,17.64 302.76,18.12 303,18.6 C303.12,19.08 303.36,19.56 303.6,20.04 C303.96,21 304.56,21.72 305.28,22.2 C306,22.68 307.08,22.92 308.76,22.92 C309.96,22.92 310.92,22.44 311.88,21.48 C312.84,20.52 313.32,19.32 313.32,18.12 C313.32,16.68 312.72,15 311.76,13.32 C310.68,11.76 309.48,10.2 308.04,8.76 C306.48,7.32 304.92,6.12 303.24,4.92 C301.44,3.84 299.88,3 298.56,2.4 C297,1.8 295.2,1.32 293.16,0.84 C291.12,0.6 289.32,0.36 287.64,0.36 C283.68,0.36 279.96,0.84 276.6,1.56 C273.24,2.4 270.24,3.72 267.84,5.4 C265.32,7.2 263.4,9.48 261.96,12.12 C260.52,15 259.92,18.24 259.92,22.08 C259.92,25.08 260.4,27.72 261.6,30.12 C262.68,32.64 264.12,34.92 266.04,36.84 C267.96,38.88 270.12,40.68 272.64,42.36 C275.04,44.04 277.68,45.72 280.44,47.16 C283.32,48.84 286.32,50.28 289.32,51.72 C292.2,53.16 294.72,54.6 297.12,56.04 C299.4,57.48 301.32,59.04 303,60.72 C304.44,62.4 305.28,64.32 305.28,66.36 C305.28,68.04 304.44,69.48 302.76,70.68 C301.08,71.88 299.16,72.72 297,73.44 C294.72,74.16 292.44,74.76 290.04,75 C287.64,75.36 285.72,75.48 284.28,75.48 C281.76,75.48 279.48,75.24 277.56,74.52 C275.52,74.04 273.96,73.32 273,72.6 C272.52,72.24 271.8,71.64 271.08,70.92 C270.12,70.2 269.28,69.36 268.56,68.4 C267.6,67.56 266.88,66.72 266.28,65.88 L264.72,63.84 C264,63.36 263.4,62.88 262.92,62.4 C262.2,62.04 261.6,61.8 260.88,61.8 C259.44,61.8 258.36,62.28 257.4,63 C256.44,63.96 255.96,64.92 255.96,66 C255.96,67.8 256.68,69.72 258.12,71.64 C259.56,73.56 261.6,75.36 264.12,77.04 C266.64,78.72 269.64,80.16 273,81.24 C276.24,82.32 279.72,82.8 283.56,82.8 Z M333.84,110.52 C335.76,110.52 337.2,109.68 338.04,108.24 C338.88,106.68 339.36,105 339.36,103.32 C339.12,102.6 339,102.12 339,101.64 L338.64,99.72 C338.52,99.24 338.52,98.76 338.52,98.28 L338.28,96.72 L338.28,93.84 C338.16,92.52 338.16,91.08 338.16,89.4 C338.16,87.72 338.04,86.04 338.04,84.12 L338.04,78.36 C341.04,80.4 344.04,81.84 347.04,82.68 C349.92,83.64 352.68,84.12 355.2,84.12 C360,84.12 364.2,83.16 367.8,81.24 C371.16,79.32 374.04,76.68 376.32,73.56 C378.48,70.44 380.16,67.08 381.24,63.24 C382.2,59.4 382.8,55.68 382.8,51.84 C382.8,48.72 382.2,45.84 381.24,43.2 C380.04,40.56 378.48,38.28 376.44,36.36 C374.4,34.44 372,32.88 369.12,31.68 C366.24,30.6 362.88,30 359.28,30 C355.92,30 352.44,30.84 349.08,32.4 C345.48,34.08 342.12,36.6 338.76,40.2 L338.76,35.88 C338.64,34.92 338.52,34.08 338.52,33.36 C338.4,33 338.28,32.64 338.28,32.4 L337.68,31.44 L335.88,29.64 L335.88,29.64 C335.16,29.16 334.44,28.92 333.72,28.92 C331.8,28.92 330.36,29.16 329.16,29.64 C327.84,30.24 327.24,31.2 327.24,32.52 C327.24,33.48 327.36,34.44 327.6,35.16 L327.96,36.6 L328.2,37.92 C328.44,39.84 328.56,41.64 328.8,43.32 C328.92,45 329.04,46.8 329.04,48.6 C329.04,53.4 328.92,58.2 328.92,62.76 L328.68,77.04 L328.68,84.24 C328.58,86.44 328.563333,88.5566667 328.560556,90.6594444 L328.56,103.32 C328.56,103.8 328.68,104.52 328.92,105.48 C329.04,106.2 329.4,107.04 330,107.88 C330.48,108.48 331.08,109.08 331.68,109.68 C332.16,110.16 332.88,110.52 333.84,110.52 Z M355.92,77.76 C354.24,77.76 352.44,77.52 350.52,76.92 C348.48,76.44 346.68,75.72 345,74.76 C343.2,73.8 341.76,72.6 340.68,71.16 C339.48,69.84 338.88,68.28 338.88,66.6 L338.88035,61.6852478 C338.882449,59.8212245 338.897143,58.2342857 339,57 C339,55.68 339.24,54.48 339.72,53.28 C340.2,51.6 341.16,49.68 342.84,47.76 C344.4,45.84 346.2,44.04 348.36,42.36 C350.52,40.8 352.8,39.48 355.32,38.28 C357.72,37.32 360,36.72 362.28,36.72 C364.2,36.72 365.76,37.2 367.08,38.04 C368.28,39 369.24,40.2 369.96,41.64 C370.68,43.08 371.16,44.52 371.4,46.2 C371.64,47.88 371.76,49.32 371.76,50.64 C371.76,54.72 371.4,58.32 370.68,61.56 C369.96,64.92 368.88,67.8 367.56,70.2 C366.12,72.6 364.44,74.52 362.52,75.72 C360.6,77.16 358.32,77.76 355.92,77.76 Z M403.32,85.2 C405,85.2 406.32,84.72 407.4,83.88 C408.36,82.92 408.96,81.84 408.96,80.4 C408.96,78.24 408.72,75.84 408.24,73.08 C407.64,70.44 407.4,67.8 407.4,65.16 C407.4,64.2 407.64,62.88 408.24,61.32 C408.84,59.88 409.56,58.44 410.52,56.76 C411.36,55.2 412.32,53.52 413.52,51.72 C414.6,50.04 415.68,48.48 416.64,46.8 C417.12,45.96 417.96,45 418.92,43.8 C419.88,42.72 420.96,41.64 422.16,40.68 C423.36,39.72 424.8,39 426.24,38.28 C427.56,37.56 429,37.2 430.44,37.2 C430.8,37.2 431.4,37.44 432.24,37.68 C432.48,37.8 432.96,37.8 433.68,37.8 C434.28,37.92 434.64,37.92 434.88,37.92 C435.72,37.92 436.56,37.44 437.52,36.48 C438.24,35.52 438.72,34.68 438.72,33.72 C438.72,33 438.36,32.28 437.88,31.56 C437.28,31.08 436.56,30.6 435.72,30.12 C434.76,29.64 433.92,29.28 432.96,29.04 C431.88,28.8 430.92,28.68 430.2,28.68 C428.28,28.68 426.36,29.16 424.32,30.12 C422.16,31.08 420.12,32.28 418.08,33.96 C415.92,35.76 413.88,37.92 411.96,40.44 C409.92,43.08 408.12,45.96 406.68,49.08 C406.92,46.32 407.04,43.8 407.28,41.64 C407.28,39.6 407.4,37.68 407.4,36 C407.4,34.44 406.8,33.24 405.84,32.28 C404.76,31.44 403.56,30.96 402.24,30.96 C400.92,30.96 399.84,31.44 398.88,32.16 C397.8,33 397.08,33.96 396.72,35.04 C396.6,35.4 396.48,36.24 396.48,37.68 C396.36,39.12 396.24,40.92 396.24,42.84 L396,49.56 L396,56.4 C396,59.52 396,62.52 396.24,65.52 L396.48,74.64 C396.48,76.08 396.72,77.52 396.96,78.96 C397.08,80.4 397.56,81.72 398.28,82.8 C399.24,84.36 400.92,85.2 403.32,85.2 Z M458.52,18.96 C460.44,18.96 462,18.48 463.2,17.4 C464.4,16.44 465,15 465,13.08 C465,10.8 464.16,9 462.48,7.56 C460.68,6.36 458.64,5.64 456.24,5.64 C454.32,5.64 452.76,6.24 451.44,7.32 C450.12,8.4 449.52,9.84 449.52,11.64 C449.52,12.72 449.76,13.68 450.24,14.52 C450.72,15.48 451.44,16.2 452.4,16.92 C453.12,17.64 454.08,18.12 455.28,18.36 C456.24,18.84 457.32,18.96 458.52,18.96 Z M456.48,84 C457.2,84 457.92,83.88 458.64,83.4 C459.24,82.92 459.84,82.44 460.32,81.72 C460.68,81.12 461.04,80.4 461.28,79.56 C461.52,78.84 461.64,78.24 461.64,77.52 C461.16,76.44 460.92,75.24 460.8,74.04 C460.59,73.095 460.56375,72.241875 460.560469,71.4002344 L460.56,59.16 C460.56,57.36 460.68,55.56 460.68,53.88 C460.68,52.2 460.68,50.52 460.8,49.08 L460.8,45.72 C460.8,44.4 461.04,43.08 461.28,41.88 L461.76,38.28 C461.76,37.92 461.88,37.56 462,37.32 L462,36.24 C462,35.76 461.76,35.28 461.28,34.8 C460.8,34.32 460.2,33.96 459.6,33.48 C458.88,33 458.16,32.64 457.44,32.4 C456.6,32.16 455.88,32.04 455.28,32.04 C454.08,32.04 453.12,32.16 452.64,32.4 C452.16,32.64 451.68,33.12 451.44,33.72 C450.96,34.68 450.72,35.88 450.72,37.2 L450.72,51 C450.6,53.52 450.6,56.16 450.6,58.92 C450.6,61.68 450.48,64.32 450.48,66.72 L450.48,77.04 C450.48,77.76 450.6,78.6 450.96,79.32 C451.32,80.28 451.8,81 452.4,81.72 C453,82.44 453.72,82.92 454.44,83.4 C455.16,83.88 455.76,84 456.48,84 Z M504.96,84.96 C506.16,84.96 507.6,84.72 509.4,84.36 C511.08,84 512.64,83.4 514.08,82.68 C515.16,82.08 516.24,81.24 517.2,80.04 C518.16,79.08 518.64,78 518.64,76.8 C518.64,76.2 518.28,75.6 517.8,75 C517.32,74.52 516.6,74.28 515.76,74.28 C514.68,74.28 513.96,74.52 513.48,75 C513,75.48 512.64,76.08 512.4,76.68 C512.16,77.04 512.04,77.4 511.8,77.64 C511.56,77.88 511.44,78.12 511.44,78.12 C510.48,78.96 509.28,79.32 507.84,79.32 C505.773913,79.32 504.146994,78.4416635 502.854225,76.6849905 L502.68,76.44 C501.24,74.52 500.64,71.28 500.64,66.72 C500.64,63 500.64,59.16 500.88,55.32 C501,51.6 501.24,47.52 501.48,43.2 C502.08,43.2 502.92,43.08 503.88,42.96 L506.52,42.72 C508.68,42.48 510.6,42.12 512.28,41.64 C513.72,41.28 514.92,40.8 516.12,40.2 C517.32,39.72 517.92,38.88 517.92,37.92 C517.92,37.2 517.56,36.72 517.08,36.48 C516.36,36.24 515.76,36.12 515.16,35.88 C514.8,35.88 514.32,35.88 513.72,35.64 L511.32,35.4 L501.96,35.4 C501.96,34.92 502.08,34.2 502.2,33.12 L502.68,29.76 L503.16,26.16 C503.16,24.96 503.28,24 503.52,23.16 L503.88,21 C504,20.4 504.12,19.68 504.12,18.96 C504.12,18.48 503.76,18 503.16,17.4 C502.56,16.92 501.84,16.44 501.12,15.96 C500.28,15.6 499.44,15.24 498.6,14.88 C497.64,14.64 496.8,14.4 496.32,14.4 C495.36,14.4 494.52,14.52 493.8,14.76 C492.84,15 492.24,15.36 491.88,15.72 C491.76,15.84 491.64,16.08 491.52,16.44 C491.28,16.8 491.28,17.16 491.28,17.52 C491.28,18 491.16,19.08 491.16,20.76 C491.16,22.44 491.04,24.36 491.04,26.28 C490.92,28.2 490.92,30.12 490.92,31.8 C490.8,33.72 490.8,34.92 490.8,35.52 C490.32,35.52 489.48,35.64 488.52,35.64 L485.4,35.88 C484.2,35.88 483.12,36 482.04,36 C480.96,36.12 480.12,36.12 479.52,36.12 C478.32,36.12 477.48,36.36 476.76,36.6 C476.04,36.96 475.8,37.56 475.8,38.4 C475.8,40.08 476.16,41.52 477.12,42.96 C477.96,44.4 479.16,45.12 480.84,45.12 C482.04,45.12 483.48,45 485.16,44.76 L490.56,44.28 C490.44,48.24 490.44,51.84 490.44,55.2 C490.32,58.56 490.32,61.92 490.32,65.16 C490.32,67.56 490.44,69.84 490.92,72.12 C491.28,74.52 492,76.68 493.08,78.6 C494.16,80.52 495.72,81.96 497.64,83.16 C499.44,84.36 501.84,84.96 504.96,84.96 Z M551.04,85.08 C553.68,85.08 556.44,84.84 559.44,84.36 C562.32,83.88 564.96,83.04 567.36,82.08 C569.76,81.12 571.92,80.04 573.6,78.72 C575.16,77.52 576,76.08 576,74.4 C576,73.92 575.64,73.32 575.04,72.6 C574.32,71.88 573.48,71.52 572.52,71.52 C571.32,71.52 570.24,71.88 569.28,72.48 C568.2,73.2 567.12,73.92 565.92,74.64 C564.6,75.36 563.28,76.08 561.84,76.68 C560.4,77.4 558.84,77.88 557.4,78.24 C555.84,78.72 554.28,78.84 552.84,78.84 C550.2,78.84 547.8,78.36 545.76,77.4 C543.6,76.56 541.68,75.36 540.24,73.68 C538.68,72.12 537.6,70.2 537,67.8 C536.28,65.4 536.04,63 536.04,60.48 C537.96,61.68 540.24,62.52 542.88,63.24 C545.52,63.96 548.04,64.32 550.44,64.32 C553.8,64.32 557.04,63.96 560.16,63 C563.28,62.04 565.92,60.84 568.32,59.28 C570.6,57.84 572.4,56.04 573.84,54 C575.28,52.08 576,49.92 576,47.64 C576,44.52 575.04,41.64 573.12,39.24 C571.08,36.96 568.56,35.04 565.56,33.36 C563.16,32.16 560.28,31.2 557.16,30.48 C553.92,29.88 550.92,29.52 548.16,29.52 C545.4,29.52 542.76,30.48 540.12,32.4 C537.48,34.32 535.08,36.84 533.04,39.84 C530.88,42.96 529.08,46.44 527.76,50.28 C526.44,54.12 525.84,58.08 525.84,61.92 C525.84,64.8 526.32,67.68 527.28,70.44 C528.24,73.32 529.8,75.72 531.84,77.88 C533.88,80.04 536.52,81.84 539.76,83.16 C542.88,84.36 546.6,85.08 551.04,85.08 Z M550.44,57.72 C547.08,57.72 544.2,57.24 541.92,56.04 C539.52,55.08 538.08,53.52 537.36,51.48 C537.84,49.56 538.56,47.76 539.52,45.96 C540.48,44.28 541.56,42.72 542.88,41.4 C544.08,40.08 545.4,39 546.96,38.16 C548.4,37.44 549.96,36.96 551.64,36.96 C553.2,36.96 555,37.2 557.04,37.68 C559.08,38.16 560.88,38.88 562.32,39.72 C563.76,40.68 564.96,41.76 565.92,43.08 C566.88,44.52 567.36,46.2 567.36,48 C567.36,49.44 566.76,50.76 565.8,51.96 C564.72,53.16 563.4,54.24 561.84,55.08 C560.16,55.92 558.24,56.52 556.32,57 C554.28,57.48 552.36,57.72 550.44,57.72 Z"
            id="SVGSprite" fill="#ffffff" fill-rule="nonzero"></path>
    </g>
</svg>